<?xml version="1.0" encoding="UTF-8" standalone="no"?>
<!-- Created with Inkscape (http://www.inkscape.org/) -->

<svg
   xmlns:dc="http://purl.org/dc/elements/1.1/"
   xmlns:cc="http://creativecommons.org/ns#"
   xmlns:rdf="http://www.w3.org/1999/02/22-rdf-syntax-ns#"
   xmlns:svg="http://www.w3.org/2000/svg"
   xmlns="http://www.w3.org/2000/svg"
   xmlns:sodipodi="http://sodipodi.sourceforge.net/DTD/sodipodi-0.dtd"
   xmlns:inkscape="http://www.inkscape.org/namespaces/inkscape"
   width="210mm"
   height="297mm"
   id="svg2"
   version="1.1"
   inkscape:version="0.48.2 r9819"
   sodipodi:docname="logos2.svg">
  <defs
     id="defs4" />
  <sodipodi:namedview
     id="base"
     pagecolor="#ffffff"
     bordercolor="#666666"
     borderopacity="1.0"
     inkscape:pageopacity="0.0"
     inkscape:pageshadow="2"
     inkscape:zoom="1.979899"
     inkscape:cx="473.11323"
     inkscape:cy="75.846146"
     inkscape:document-units="px"
     inkscape:current-layer="layer1"
     showgrid="true"
     inkscape:snap-grids="false"
     showguides="true"
     inkscape:guide-bbox="true"
     inkscape:snap-to-guides="false"
     inkscape:window-width="1280"
     inkscape:window-height="938"
     inkscape:window-x="-4"
     inkscape:window-y="-4"
     inkscape:window-maximized="1">
    <sodipodi:guide
       orientation="0,1"
       position="217.68787,815.1931"
       id="guide2985" />
    <sodipodi:guide
       orientation="0,1"
       position="315.16759,673.26667"
       id="guide2987" />
    <sodipodi:guide
       orientation="1,0"
       position="247.99245,776.80731"
       id="guide2989" />
    <sodipodi:guide
       orientation="1,0"
       position="389.91888,715.188"
       id="guide2991" />
    <inkscape:grid
       type="xygrid"
       id="grid2997"
       empspacing="2"
       visible="true"
       enabled="true"
       snapvisiblegridlinesonly="true"
       units="cm"
       spacingx="0.5cm"
       spacingy="0.5cm" />
  </sodipodi:namedview>
  <metadata
     id="metadata7">
    <rdf:RDF>
      <cc:Work
         rdf:about="">
        <dc:format>image/svg+xml</dc:format>
        <dc:type
           rdf:resource="http://purl.org/dc/dcmitype/StillImage" />
        <dc:title></dc:title>
      </cc:Work>
    </rdf:RDF>
  </metadata>
  <g
     inkscape:label="Calque 1"
     inkscape:groupmode="layer"
     id="layer1">
    <path
       style="fill:none;stroke:#ffaaaa;stroke-width:1px;stroke-linecap:butt;stroke-linejoin:miter;stroke-opacity:1"
       d="M 389.91888,237.16908 247.99245,379.09551"
       id="path2999"
       inkscape:connector-curvature="0" />
    <path
       style="fill:none;stroke:#e9afaf;stroke-width:1px;stroke-linecap:butt;stroke-linejoin:miter;stroke-opacity:1"
       d="M 247.99245,237.16908 389.91888,379.09551"
       id="path3001"
       inkscape:connector-curvature="0" />
    <path
       style="fill:none;stroke:#e9afaf;stroke-width:1px;stroke-linecap:butt;stroke-linejoin:miter;stroke-opacity:1"
       d="M 354.64286,237.16908 247.99245,379.09551"
       id="path3003"
       inkscape:connector-curvature="0" />
    <path
       style="fill:none;stroke:#e9afaf;stroke-width:1px;stroke-linecap:butt;stroke-linejoin:miter;stroke-opacity:1"
       d="M 283.21429,237.16908 389.91888,379.09551"
       id="path3005"
       inkscape:connector-curvature="0" />
    <path
       style="fill:none;stroke:#e9afaf;stroke-width:1px;stroke-linecap:butt;stroke-linejoin:miter;stroke-opacity:1"
       d="M 283.21429,379.09551 389.91888,237.16908"
       id="path3007"
       inkscape:connector-curvature="0" />
    <path
       style="fill:none;stroke:#e9afaf;stroke-width:1px;stroke-linecap:butt;stroke-linejoin:miter;stroke-opacity:1"
       d="M 353.57143,379.09551 247.99245,237.16908"
       id="path3009"
       inkscape:connector-curvature="0" />
    <path
       style="fill:#999999;stroke:#999999;stroke-width:1px;stroke-linecap:butt;stroke-linejoin:miter;stroke-opacity:1"
       d="m 354.28571,237.16908 -53.57142,71.26453 7.85714,10 81.34745,-81.26453 z"
       id="path3011"
       inkscape:connector-curvature="0" />
    <path
       style="fill:#808080;stroke:#808080;stroke-width:1px;stroke-linecap:butt;stroke-linejoin:miter;stroke-opacity:1"
       d="m 247.99245,379.09551 80.93612,-81.01904 7.5,10 -53.21428,71.01904 z"
       id="path3013"
       inkscape:connector-curvature="0" />
    <path
       style="fill:#808080;stroke:#808080;stroke-width:1px;stroke-linecap:butt;stroke-linejoin:miter;stroke-opacity:1"
       d="m 283.57143,237.16908 34.64286,46.97882 -9.64286,13.92857 -60.57898,-60.90739 z"
       id="path3015"
       inkscape:connector-curvature="0" />
    <path
       style="fill:#999999;stroke:#999999;stroke-width:1px;stroke-linecap:butt;stroke-linejoin:miter;stroke-opacity:1"
       d="m 353.21429,379.09551 36.70459,0 -60.63317,-60.6619 -10.71428,13.92857 z"
       id="path3017"
       inkscape:connector-curvature="0" />
    <path
       style="fill:#999999;stroke:#999999;stroke-width:0.93118078px;stroke-linecap:butt;stroke-linejoin:miter;stroke-opacity:1"
       d="m 597.79119,225.04725 -46.27308,71.71096 6.00933,8.92857 71.16119,-80.63953 z"
       id="path3011-1"
       inkscape:connector-curvature="0"
       sodipodi:nodetypes="ccccc" />
    <path
       style="fill:#808080;stroke:#808080;stroke-width:0.93118078px;stroke-linecap:butt;stroke-linejoin:miter;stroke-opacity:1"
       d="m 505.62455,366.97368 70.80452,-80.21547 5.87823,9.19643 -46.14197,71.01904 z"
       id="path3013-7"
       inkscape:connector-curvature="0"
       sodipodi:nodetypes="ccccc" />
    <path
       style="fill:#808080;stroke:#808080;stroke-width:0.93118078px;stroke-linecap:butt;stroke-linejoin:miter;stroke-opacity:1"
       d="m 536.475,225.04725 29.59231,46.80025 -8.71844,13.48214 -51.72432,-60.28239 z"
       id="path3015-4"
       inkscape:connector-curvature="0"
       sodipodi:nodetypes="ccccc" />
    <path
       style="fill:#999999;stroke:#999999;stroke-width:0.93118078px;stroke-linecap:butt;stroke-linejoin:miter;stroke-opacity:1"
       d="m 596.86216,366.97368 31.82647,0 -52.12845,-59.50119 -8.93319,13.66072 z"
       id="path3017-0"
       inkscape:connector-curvature="0"
       sodipodi:nodetypes="ccccc" />
    <path
       style="fill:#999999;stroke:#999999;stroke-width:0.93118078px;stroke-linecap:butt;stroke-linejoin:miter;stroke-opacity:1"
       d="m 511.03762,467.98894 c -10.85427,24.95001 -29.12342,47.86938 -47.86245,70.66007 1.18006,3.45118 0.37195,6.09143 4.76509,7.71105 26.27061,-25.98091 51.25216,-50.85544 73.8048,-78.00117 -2.12442,2.32217 -8.28855,4.0609 -30.70744,-0.36995 z"
       id="path3011-1-9"
       inkscape:connector-curvature="0"
       sodipodi:nodetypes="ccccc" />
    <path
       style="fill:#808080;stroke:#808080;stroke-width:0.93118078px;stroke-linecap:butt;stroke-linejoin:miter;stroke-opacity:1"
       d="m 417.48605,609.41029 c 21.02738,-29.31261 44.32869,-56.09877 70.74139,-80.02606 3.05007,2.41108 6.17652,4.6248 5.94136,9.00702 -17.20298,21.85069 -37.13878,40.96856 -46.14197,71.01904 0.11602,4.66912 -14.81237,1.8389 -30.54078,0 z"
       id="path3013-7-4"
       inkscape:connector-curvature="0"
       sodipodi:nodetypes="ccccc" />
    <path
       style="fill:#808080;stroke:#808080;stroke-width:0.93118078px;stroke-linecap:butt;stroke-linejoin:miter;stroke-opacity:1"
       d="m 448.3365,467.48386 c 11.65952,14.70237 22.46836,32.10294 30.09739,48.82056 l -8.71844,11.46183 c -13.63802,-22.09603 -32.58197,-41.52492 -52.2294,-60.28239 15.24465,3.26613 29.39725,3.44463 30.85045,0 z"
       id="path3015-4-8"
       inkscape:connector-curvature="0"
       sodipodi:nodetypes="ccccc" />
    <path
       style="fill:#999999;stroke:#999999;stroke-width:0.93118078px;stroke-linecap:butt;stroke-linejoin:miter;stroke-opacity:1"
       d="m 508.72366,609.41029 c 28.14323,3.95962 30.79039,2.00306 31.82647,0 -16.09049,-21.33366 -32.54392,-43.89592 -52.57039,-60.63761 l -8.9332,10.56713 c 12.6934,9.83209 21.6141,31.63088 29.67712,50.07048 z"
       id="path3017-0-8"
       inkscape:connector-curvature="0"
       sodipodi:nodetypes="ccccc" />
    <path
       style="fill:#ff6600;stroke:#ff6600;stroke-width:0.93118078000000004px;stroke-linecap:butt;stroke-linejoin:miter;stroke-opacity:1"
       d="m 147.13635,663.48778 c -10.85427,24.95001 -29.12342,47.86938 -47.862449,70.66007 1.180059,3.45118 0.37195,6.09143 4.765089,7.71105 26.27061,-25.98091 51.25216,-50.85544 73.8048,-78.00117 -2.12442,2.32217 -8.28855,4.0609 -30.70744,-0.36995 z"
       id="path3011-1-9-7"
       inkscape:connector-curvature="0"
       sodipodi:nodetypes="ccccc" />
    <path
       style="fill:#672178;stroke:#672178;stroke-width:0.93118078000000004px;stroke-linecap:butt;stroke-linejoin:miter;stroke-opacity:1"
       d="m 53.584781,804.90913 c 21.02738,-29.31261 44.32869,-56.09877 70.741389,-80.02606 3.05007,2.41108 6.17652,4.6248 5.94136,9.00702 -17.20298,21.85069 -37.138779,40.96856 -46.141969,71.01904 0.11602,4.66912 -14.81237,1.8389 -30.54078,0 z"
       id="path3013-7-4-1"
       inkscape:connector-curvature="0"
       sodipodi:nodetypes="ccccc" />
    <path
       style="fill:#672178;stroke:#672178;stroke-width:0.93118078000000004px;stroke-linecap:butt;stroke-linejoin:miter;stroke-opacity:1"
       d="m 84.435231,662.9827 c 11.65952,14.70237 22.468359,32.10294 30.097389,48.82056 l -8.71844,11.46183 C 92.176161,701.16906 73.232211,681.74017 53.584781,662.9827 c 15.24465,3.26613 29.39725,3.44463 30.85045,0 z"
       id="path3015-4-8-1"
       inkscape:connector-curvature="0"
       sodipodi:nodetypes="ccccc" />
    <path
       style="fill:#ff6600;stroke:#ff6600;stroke-width:0.93118078000000004px;stroke-linecap:butt;stroke-linejoin:miter;stroke-opacity:1"
       d="m 144.82239,804.90913 c 28.14323,3.95962 30.79039,2.00306 31.82647,0 -16.09049,-21.33366 -32.54392,-43.89592 -52.57039,-60.63761 l -8.9332,10.56713 c 12.6934,9.83209 21.6141,31.63088 29.67712,50.07048 z"
       id="path3017-0-8-5"
       inkscape:connector-curvature="0"
       sodipodi:nodetypes="ccccc" />
    <path
       style="fill:#552200;stroke:#552200;stroke-width:0.93118078000000004px;stroke-linecap:butt;stroke-linejoin:miter;stroke-opacity:1"
       d="m 331.42206,666.34493 c -10.85427,24.95001 -29.12342,47.86938 -47.86245,70.66007 1.18006,3.45118 0.37195,6.09143 4.76509,7.71105 26.27061,-25.98091 51.25216,-50.85544 73.8048,-78.00117 -2.12442,2.32217 -8.28855,4.0609 -30.70744,-0.36995 z"
       id="path3011-1-9-2"
       inkscape:connector-curvature="0"
       sodipodi:nodetypes="ccccc" />
    <path
       style="fill:#ff6600;stroke:#ff6600;stroke-width:0.93118078000000004px;stroke-linecap:butt;stroke-linejoin:miter;stroke-opacity:1"
       d="m 237.8705,807.76628 c 21.02737,-29.31261 44.32868,-56.09877 70.74138,-80.02606 3.05007,2.41108 6.17652,4.6248 5.94136,9.00702 -17.20298,21.85069 -37.13878,40.96856 -46.14197,71.01904 0.11602,4.66912 -14.81237,1.8389 -30.54077,0 z"
       id="path3013-7-4-7"
       inkscape:connector-curvature="0"
       sodipodi:nodetypes="ccccc" />
    <path
       style="fill:#2b1100;stroke:#2b1100;stroke-width:0.93118078000000004px;stroke-linecap:butt;stroke-linejoin:miter;stroke-opacity:1"
       d="m 268.72094,665.83985 c 11.65952,14.70237 22.46836,32.10294 30.09739,48.82056 l -8.71844,11.46183 c -13.63802,-22.09603 -32.58197,-41.52492 -52.22939,-60.28239 15.24464,3.26613 29.39724,3.44463 30.85044,0 z"
       id="path3015-4-8-6"
       inkscape:connector-curvature="0"
       sodipodi:nodetypes="ccccc" />
    <path
       style="fill:#aa4400;stroke:#aa4400;stroke-width:0.93118078000000004px;stroke-linecap:butt;stroke-linejoin:miter;stroke-opacity:1"
       d="m 329.1081,807.76628 c 28.14323,3.95962 30.79039,2.00306 31.82647,0 -16.09049,-21.33366 -32.54392,-43.89592 -52.57039,-60.63761 l -8.9332,10.56713 c 12.6934,9.83209 21.6141,31.63088 29.67712,50.07048 z"
       id="path3017-0-8-1"
       inkscape:connector-curvature="0"
       sodipodi:nodetypes="ccccc" />
    <path
       style="fill:#782121;stroke:#501616;stroke-width:0.93118078000000004px;stroke-linecap:butt;stroke-linejoin:miter;stroke-opacity:1"
       d="m 474.27921,656.34493 c -10.85427,24.95001 -29.12342,47.86938 -47.86245,70.66007 1.18006,3.45118 0.37195,6.09143 4.76509,7.71105 26.27061,-25.98091 51.25216,-50.85544 73.8048,-78.00117 -2.12442,2.32217 -8.28855,4.0609 -30.70744,-0.36995 z"
       id="path3011-1-9-4"
       inkscape:connector-curvature="0"
       sodipodi:nodetypes="ccccc" />
    <path
       style="fill:#c83737;stroke:#a02c2c;stroke-width:0.93118078000000004px;stroke-linecap:butt;stroke-linejoin:miter;stroke-opacity:1"
       d="m 380.72764,797.76628 c 21.02738,-29.31261 44.32869,-56.09877 70.74139,-80.02606 3.05007,2.41108 6.17652,4.6248 5.94136,9.00702 -17.20298,21.85069 -37.13878,40.96856 -46.14197,71.01904 0.11602,4.66912 -14.81237,1.8389 -30.54078,0 z"
       id="path3013-7-4-2"
       inkscape:connector-curvature="0"
       sodipodi:nodetypes="ccccc" />
    <path
       style="fill:#501616;stroke:#280b0b;stroke-width:0.93118078000000004px;stroke-linecap:butt;stroke-linejoin:miter;stroke-opacity:1"
       d="m 411.57809,655.83985 c 11.65952,14.70237 22.46836,32.10294 30.09739,48.82056 l -8.71844,11.46183 c -13.63802,-22.09603 -32.58197,-41.52492 -52.2294,-60.28239 15.24465,3.26613 29.39725,3.44463 30.85045,0 z"
       id="path3015-4-8-3"
       inkscape:connector-curvature="0"
       sodipodi:nodetypes="ccccc" />
    <path
       style="fill:#a02c2c;stroke:#782121;stroke-width:0.93118078000000004px;stroke-linecap:butt;stroke-linejoin:miter;stroke-opacity:1"
       d="m 471.96525,797.76628 c 28.14323,3.95962 30.79039,2.00306 31.82647,0 -16.09049,-21.33366 -32.54392,-43.89592 -52.57039,-60.63761 l -8.9332,10.56713 c 12.6934,9.83209 21.6141,31.63088 29.67712,50.07048 z"
       id="path3017-0-8-2"
       inkscape:connector-curvature="0"
       sodipodi:nodetypes="ccccc" />
    <path
       style="fill:#999999;stroke:#999999;stroke-width:0.93118078px;stroke-linecap:butt;stroke-linejoin:miter;stroke-opacity:1"
       d="m 632.85064,652.05921 c -10.85427,24.95001 -29.12342,47.86938 -47.86245,70.66007 1.18006,3.45118 0.37195,6.09143 4.76509,7.71105 26.27061,-25.98091 51.25216,-50.85544 73.8048,-78.00117 -2.12442,2.32217 -8.28855,4.0609 -30.70744,-0.36995 z"
       id="path3011-1-9-21"
       inkscape:connector-curvature="0"
       sodipodi:nodetypes="ccccc" />
    <path
       style="fill:#808080;stroke:#808080;stroke-width:0.93118078px;stroke-linecap:butt;stroke-linejoin:miter;stroke-opacity:1"
       d="m 539.29907,793.48056 c 21.02738,-29.31261 44.32869,-56.09877 70.74139,-80.02606 3.05007,2.41108 6.17652,4.6248 5.94136,9.00702 -17.20298,21.85069 -37.13878,40.96856 -46.14197,71.01904 0.11602,4.66912 -14.81237,1.8389 -30.54078,0 z"
       id="path3013-7-4-6"
       inkscape:connector-curvature="0"
       sodipodi:nodetypes="ccccc" />
    <path
       style="fill:#808080;stroke:#808080;stroke-width:0.93118078px;stroke-linecap:butt;stroke-linejoin:miter;stroke-opacity:1"
       d="m 570.14952,651.55413 c 11.65952,14.70237 22.46836,32.10294 30.09739,48.82056 l -8.71844,11.46183 c -13.63802,-22.09603 -32.58197,-41.52492 -52.2294,-60.28239 15.24465,3.26613 29.39725,3.44463 30.85045,0 z"
       id="path3015-4-8-8"
       inkscape:connector-curvature="0"
       sodipodi:nodetypes="ccccc" />
    <path
       style="fill:#999999;stroke:#999999;stroke-width:0.93118078px;stroke-linecap:butt;stroke-linejoin:miter;stroke-opacity:1"
       d="m 630.53668,793.48056 c 28.14323,3.95962 30.79039,2.00306 31.82647,0 -16.09049,-21.33366 -32.54392,-43.89592 -52.57039,-60.63761 l -8.9332,10.56713 c 12.6934,9.83209 21.6141,31.63088 29.67712,50.07048 z"
       id="path3017-0-8-57"
       inkscape:connector-curvature="0"
       sodipodi:nodetypes="ccccc" />
    <g
       id="g3202"
       inkscape:export-filename="D:\_Data\_Benoit_Perso\_Projets\pluxml2\themes\theme-niw\images\Logo_h100.png"
       inkscape:export-xdpi="61.505375"
       inkscape:export-ydpi="61.505375"
       transform="matrix(0.96263929,0,-0.16050328,1,159.88298,0)">
      <path
         sodipodi:nodetypes="ccccc"
         inkscape:connector-curvature="0"
         id="path3011-1-9-4-9"
         d="m 350.12519,867.49356 c -10.85427,24.95001 -29.12342,47.86938 -47.86245,70.66007 1.18006,3.45118 0.37195,6.09143 4.76509,7.71105 26.27061,-25.98091 51.25216,-50.85544 73.8048,-78.00117 -2.12442,2.32217 -8.28855,4.0609 -30.70744,-0.36995 z"
         style="fill:#782121;stroke:#501616;stroke-width:0.93118078px;stroke-linecap:butt;stroke-linejoin:miter;stroke-opacity:1" />
      <path
         sodipodi:nodetypes="ccccc"
         inkscape:connector-curvature="0"
         id="path3013-7-4-2-5"
         d="m 256.57362,1008.915 c 21.02738,-29.31275 44.32869,-56.09886 70.74139,-80.02615 3.05007,2.41108 6.17652,4.6248 5.94136,9.00702 -17.20298,21.85069 -37.13878,40.96858 -46.14197,71.01913 0.11602,4.6691 -14.81237,1.8389 -30.54078,0 z"
         style="fill:#c83737;stroke:#a02c2c;stroke-width:0.93118078px;stroke-linecap:butt;stroke-linejoin:miter;stroke-opacity:1" />
      <path
         sodipodi:nodetypes="ccccc"
         inkscape:connector-curvature="0"
         id="path3015-4-8-3-4"
         d="m 287.42407,866.98848 c 11.65952,14.70237 22.46836,32.10294 30.09739,48.82056 l -8.71844,11.46183 c -13.63802,-22.09603 -32.58197,-41.52492 -52.2294,-60.28239 15.24465,3.26613 29.39725,3.44463 30.85045,0 z"
         style="fill:#501616;stroke:#280b0b;stroke-width:0.93118078px;stroke-linecap:butt;stroke-linejoin:miter;stroke-opacity:1" />
      <path
         sodipodi:nodetypes="ccccc"
         inkscape:connector-curvature="0"
         id="path3017-0-8-2-3"
         d="m 347.81123,1008.915 c 28.14323,3.9596 30.79039,2.003 31.82647,0 -16.09049,-21.33375 -32.54392,-43.89601 -52.57039,-60.6377 l -8.9332,10.56713 c 12.6934,9.83209 21.6141,31.63092 29.67712,50.07057 z"
         style="fill:#a02c2c;stroke:#782121;stroke-width:0.93118078px;stroke-linecap:butt;stroke-linejoin:miter;stroke-opacity:1" />
    </g>
  </g>
</svg>
